<?xml version="1.0" encoding="utf-8"?>
<svg xmlns="http://www.w3.org/2000/svg" width="303.441" height="71.773" viewBox="0 0 303.441 71.773">
  <g id="Group_97" data-name="Group 97" transform="translate(-123.187 -379.925)">
    <path id="Path_43" data-name="Path 43" d="M375.69,433.623a11.673,11.673,0,0,0,8.993,3.776,7.4,7.4,0,0,0,4.029-.993,3.121,3.121,0,0,0,1.563-2.781,2.468,2.468,0,0,0-.931-2.213,4.768,4.768,0,0,0-2.548-.709l-5.04-.454a9.425,9.425,0,0,1-5.835-2.5,7.7,7.7,0,0,1-2.356-5.874,8.084,8.084,0,0,1,3.091-6.809,11.947,11.947,0,0,1,7.5-2.27,22.038,22.038,0,0,1,3.53.255,17.1,17.1,0,0,1,2.927.794,16.623,16.623,0,0,1,4.707,2.977l-3.534,4.281a17.52,17.52,0,0,0-3.481-2.033,11.261,11.261,0,0,0-4.165-.716,5.509,5.509,0,0,0-3.754.995,3.258,3.258,0,0,0-1.124,2.556,2.023,2.023,0,0,0,.85,1.732,4.821,4.821,0,0,0,2.9,1.052l4.711.368q4.438.342,6.411,2.784a9.637,9.637,0,0,1,1.835,6.05,7.744,7.744,0,0,1-3.363,6.619,14.2,14.2,0,0,1-8.4,2.444,17.7,17.7,0,0,1-12.5-5.275Zm-30.143-20.454h5.7v17.555a6.44,6.44,0,0,0,1.614,4.659,5.33,5.33,0,0,0,4.048,1.675,5.243,5.243,0,0,0,4.02-1.675,6.507,6.507,0,0,0,1.587-4.659V413.169h5.7v29.448h-5.7v-3.149H362.4a8.992,8.992,0,0,1-7.349,3.49,9.424,9.424,0,0,1-6.365-2.662q-3.088-2.548-3.142-7.532Zm-13.17-11.915h5.7v33.789q0,2.016,2.138,2.016h1.974v5.558h-2.541a7.983,7.983,0,0,1-5.137-1.611q-2.132-1.638-2.131-5.51Zm-16.968,35.8a5.629,5.629,0,0,0,3.2-.8,4.505,4.505,0,0,0,1.668-2.106,11.342,11.342,0,0,0,.739-2.96q.053-1.595.055-3.274,0-1.765-.055-3.444a10.619,10.619,0,0,0-.739-2.96,4.169,4.169,0,0,0-1.668-2.107,6.162,6.162,0,0,0-3.2-.711,5.011,5.011,0,0,0-3.036.825,4.809,4.809,0,0,0-1.724,2.163,11.232,11.232,0,0,0-.683,2.9q-.164,1.652-.164,3.331a30.043,30.043,0,0,0,.164,3.131,11.341,11.341,0,0,0,.683,2.99,4.807,4.807,0,0,0,1.724,2.163,4.889,4.889,0,0,0,3.036.854m-11.3-23.89h5.7v3.064a9.664,9.664,0,0,1,7.324-3.433q5.22.142,7.624,3.858a7.883,7.883,0,0,1,1.608,3.66,48.393,48.393,0,0,1,.408,7.6,47.551,47.551,0,0,1-.409,7.49,8.275,8.275,0,0,1-1.612,3.716,8.622,8.622,0,0,1-3.087,2.724,9.628,9.628,0,0,1-4.535,1.106,7.709,7.709,0,0,1-3.906-.988,12.393,12.393,0,0,1-3.415-2.484v15.047h-5.7Z" transform="translate(-24.043 -2.834)" fill="#a4ab0f"/>
    <path id="Path_44" data-name="Path 44" d="M269.627,429.69h-6.847q-4.985.114-4.929,3.549a3.192,3.192,0,0,0,1.287,2.555,5.845,5.845,0,0,0,4.081,1.164q3.587.057,5.067-.88,1.342-.936,1.342-4.258Zm0,9.877h-.109a4.8,4.8,0,0,1-2.459,2.212,11.33,11.33,0,0,1-4.537.737q-4.755-.057-7.324-2.61a8.3,8.3,0,0,1-2.705-6.382,8.515,8.515,0,0,1,2.35-6.156q2.35-2.5,6.887-2.553h7.9v-3.108q.056-3.9-5.823-3.792a9.956,9.956,0,0,0-3.363.457,4.159,4.159,0,0,0-2.023,1.824l-4.484-3.551q3.25-4.4,9.588-4.288a14.779,14.779,0,0,1,8.551,2.1q3.2,2.212,3.251,7.6v20.114h-5.7Zm-62.21-26.84h5.707v3.121h.109a9.472,9.472,0,0,1,7.65-3.489,10.9,10.9,0,0,1,4.912,1.049,14.722,14.722,0,0,1,3.359,2.809,11.517,11.517,0,0,1,9.231-3.858,10.025,10.025,0,0,1,6.662,2.581q2.993,2.61,3.106,7.66v19.575h-5.7V424.621a6.351,6.351,0,0,0-1.637-4.716,5.694,5.694,0,0,0-4.222-1.647,5.789,5.789,0,0,0-4.251,1.647,6.222,6.222,0,0,0-1.694,4.716v17.555h-5.7V424.621a6.351,6.351,0,0,0-1.637-4.716,5.791,5.791,0,0,0-4.251-1.647,5.694,5.694,0,0,0-4.222,1.647,6.163,6.163,0,0,0-1.723,4.716v17.555h-5.7Zm-6.028-14.8v8.779h-8.411Zm-5.7,14.8h5.7v29.448h-5.7Zm-15.314-8.965h5.7v8.965h4.157v4.537h-4.157v17.169q-.057,2.242,2.024,2.185h2.133v5.557h-2.975a6.617,6.617,0,0,1-4.913-1.928,6.949,6.949,0,0,1-1.966-5.328V417.264h-2.86v-4.537h2.86Zm-17.307,32.855a5.629,5.629,0,0,0,3.2-.8,4.507,4.507,0,0,0,1.669-2.106,11.322,11.322,0,0,0,.738-2.96q.055-1.595.055-3.274,0-1.764-.055-3.444a10.618,10.618,0,0,0-.738-2.96,4.168,4.168,0,0,0-1.669-2.106,6.162,6.162,0,0,0-3.2-.712,5.019,5.019,0,0,0-3.036.825,4.818,4.818,0,0,0-1.723,2.163,11.2,11.2,0,0,0-.684,2.9q-.164,1.652-.164,3.33a30.067,30.067,0,0,0,.164,3.132,11.3,11.3,0,0,0,.684,2.989,4.811,4.811,0,0,0,1.723,2.163,4.891,4.891,0,0,0,3.036.855m-11.3-23.891h5.7v3.064a9.665,9.665,0,0,1,7.324-3.433q5.22.142,7.624,3.858a7.873,7.873,0,0,1,1.608,3.66,48.251,48.251,0,0,1,.409,7.6,47.524,47.524,0,0,1-.41,7.49,8.28,8.28,0,0,1-1.611,3.716,8.616,8.616,0,0,1-3.088,2.724,9.624,9.624,0,0,1-4.534,1.106,7.71,7.71,0,0,1-3.907-.988,12.386,12.386,0,0,1-3.415-2.483v15.046h-5.7Zm-10.883,14.752a27.539,27.539,0,0,0-.274-4.611,5.54,5.54,0,0,0-1.124-2.448,4.225,4.225,0,0,0-1.863-1.566,5.991,5.991,0,0,0-2.741-.6,6.068,6.068,0,0,0-2.685.6,5.1,5.1,0,0,0-1.917,1.565,6.981,6.981,0,0,0-1.069,2.448,22.656,22.656,0,0,0-.329,4.555,21.993,21.993,0,0,0,.329,4.5,7.572,7.572,0,0,0,1.069,2.562,6.986,6.986,0,0,0,1.917,1.508,5.839,5.839,0,0,0,2.685.627,5.754,5.754,0,0,0,2.741-.627,5.413,5.413,0,0,0,1.863-1.508,5.982,5.982,0,0,0,1.124-2.562,25.821,25.821,0,0,0,.274-4.441m-17.7-.056a26.7,26.7,0,0,1,.738-7.162,10.44,10.44,0,0,1,2.352-4.12,10.792,10.792,0,0,1,3.281-2.625,11.8,11.8,0,0,1,5.332-1.157,12.027,12.027,0,0,1,5.441,1.163,10.284,10.284,0,0,1,3.172,2.639,9.345,9.345,0,0,1,2.4,4.114,28.707,28.707,0,0,1,.682,7.149,27.932,27.932,0,0,1-.683,7.092,10.176,10.176,0,0,1-2.405,4.227,8.966,8.966,0,0,1-1.34,1.277,6.209,6.209,0,0,1-1.83,1.22,11.047,11.047,0,0,1-5.439,1.276,11.637,11.637,0,0,1-8.609-3.774,11.425,11.425,0,0,1-2.351-4.227,25.913,25.913,0,0,1-.738-7.092" transform="translate(0 -2.393)" fill="#f77e10"/>
    <path id="Path_45" data-name="Path 45" d="M423.483,401.721l18.7,4.676-6.023,11.4a3.743,3.743,0,0,1-1.827,1.628,5.7,5.7,0,0,1-2.8-.159l-13.687-3.827a3.32,3.32,0,0,1-2-1.478,2.865,2.865,0,0,1,.4-2.246Z" transform="translate(-38.877 -2.897)" fill="#a4ab0f"/>
    <path id="Path_46" data-name="Path 46" d="M433.934,387.97l17.358,2.931,3.9-7.508s.466-.814.111-1.383a1.206,1.206,0,0,0-.747-.436l-13.228-1.628a2.061,2.061,0,0,0-1.043.126,2.61,2.61,0,0,0-.78.6Z" transform="translate(-41.297)" fill="#a4ab0f"/>
    <path id="Path_47" data-name="Path 47" d="M422.5,399.71l-13.144-3.283s-.87-.167-.982-.9a1.364,1.364,0,0,1,.427-1.085l6.61-7.226a2.489,2.489,0,0,1,.912-.577,3.033,3.033,0,0,1,1.126.014l13.082,2.2Z" transform="translate(-37.899 -0.885)" fill="#f77e10"/>
    <path id="Path_48" data-name="Path 48" d="M452.925,392.584l-6.693,12.6,15.663,3.98a5.834,5.834,0,0,0,2.626.23,2.473,2.473,0,0,0,1.38-1.458l3.5-10.22a2.127,2.127,0,0,0-.127-1.853,2.537,2.537,0,0,0-1.747-.848c-.657-.122-14.6-2.43-14.6-2.43" transform="translate(-42.931 -1.682)" fill="#f77e10"/>
  </g>
</svg>
