<?xml version="1.0" encoding="UTF-8"?> <!-- Generator: Adobe Illustrator 25.2.0, SVG Export Plug-In . SVG Version: 6.00 Build 0) --> <svg xmlns="http://www.w3.org/2000/svg" xmlns:xlink="http://www.w3.org/1999/xlink" version="1.1" id="Layer_1" x="0px" y="0px" viewBox="0 0 159.7 62" style="enable-background:new 0 0 159.7 62;" xml:space="preserve"> <style type="text/css"> .st0{fill:#1D1D1B;} .st1{fill:#D52B1E;} </style> <g> <path class="st0" d="M17.9,18.1C17.9,18,17.9,18,17.9,18.1L51.4,18c0,0,0.1,0,0.1,0.1v26.1c0,0,0,0.1-0.1,0.1H18c0,0-0.1,0-0.1-0.1 V18.1z M17.3,44.2c0,0.4,0.3,0.7,0.7,0.7h33.5c0.4,0,0.7-0.3,0.7-0.7V18.1c0-0.4-0.3-0.7-0.7-0.7H18c-0.4,0-0.7,0.3-0.7,0.7V44.2z"></path> <path class="st0" d="M35.5,23.8c-0.5-0.2-1.2-0.2-1.7,0l-19.5,7c-0.5,0.2-0.5,0.5-0.1,0.7l20.1,11.2c0.4,0.2,1.1,0.2,1.5,0 l19.4-11.2c0.4-0.2,0.4-0.6-0.1-0.7L35.5,23.8z"></path> <path class="st1" d="M24.7,24.1c-0.4-0.2-1.2-0.2-1.7-0.1l-8.8,3.2c-0.5,0.2-0.5,0.5-0.1,0.7l6.7,3.7c0.4,0.2,1.1,0.3,1.6,0.1 l9.1-3.9c0.5-0.2,0.5-0.5,0-0.7L24.7,24.1z"></path> <path class="st1" d="M35.6,29c-0.4-0.2-1.2-0.2-1.6,0l-9.1,4.2c-0.4,0.2-0.5,0.6,0,0.8l9.4,5.3c0.4,0.2,1.1,0.2,1.6,0l9.1-5.3 c0.4-0.2,0.4-0.6,0-0.8L35.6,29z"></path> <path class="st1" d="M46.3,24c-0.5-0.2-1.2-0.1-1.7,0.1l-6.6,3c-0.4,0.2-0.4,0.5,0,0.7l9.2,3.9c0.5,0.2,1.2,0.1,1.6-0.1l6.4-3.7 c0.4-0.2,0.4-0.6-0.1-0.7L46.3,24z"></path> <path class="st1" d="M35.4,20.2c-0.5-0.2-1.2-0.2-1.7,0l-6.7,2.4c-0.5,0.2-0.5,0.5,0,0.7l6.8,2.9c0.5,0.2,1.2,0.2,1.6,0l6.7-2.9 c0.4-0.2,0.4-0.5,0-0.7L35.4,20.2z"></path> <path class="st0" d="M64.1,39c-1.5,0-3.1-0.3-4.3-0.8c-0.3-0.1-0.5-0.5-0.4-0.8l0.3-1.5c0.1-0.4,0.5-0.5,0.8-0.4 c1,0.4,2.1,0.7,3.4,0.7c1.5,0,2.7-0.7,2.7-2.2c0-1.8-1.9-2.3-3.6-3.2l-0.9-0.5c-1.4-0.8-2.6-1.8-2.6-4.1c0-2.8,2-4.8,5.2-4.8 c1.3,0,2.5,0.3,3.4,0.6c0.3,0.1,0.4,0.5,0.3,0.8l-0.3,1.3c-0.1,0.3-0.4,0.5-0.7,0.4C66.8,24.3,66.2,24,65,24 c-1.4,0-2.3,0.8-2.3,2.1c0,1.3,1.1,1.7,2.4,2.3l1.4,0.7c1.8,0.9,3.3,2.1,3.3,4.7C69.8,37,67.6,39,64.1,39"></path> <path class="st0" d="M77.7,23.8c-2.6,0-2.9,3-2.9,6.4c0,4,0.6,6.3,2.9,6.3c2.4,0,3-2.4,3-6.3C80.6,26.6,80.1,23.8,77.7,23.8 M77.7,39c-4,0-6.1-2.9-6.1-8.7c0-5.7,2-8.8,6.1-8.8c4,0,6.1,2.9,6.1,8.8C83.8,36,81.7,39,77.7,39"></path> <path class="st0" d="M94.5,38.8h-7.6c-0.4,0-0.7-0.3-0.7-0.7V22.2c0-0.4,0.3-0.7,0.7-0.7h1.7c0.4,0,0.7,0.3,0.7,0.7v13.8h5.3 c0.4,0,0.7,0.3,0.7,0.7v1.4C95.2,38.5,94.9,38.8,94.5,38.8"></path> <path class="st0" d="M101.8,38.2c-0.1,0.4-0.5,0.6-0.8,0.6h-2.2c-0.3,0-0.7-0.3-0.8-0.6l-4.6-15.8c-0.1-0.4,0.1-0.8,0.5-0.8h2 c0.5,0,0.7,0.2,0.8,0.7l2.8,11.1c0.2,0.9,0.4,2.3,0.5,3.6c0.2-1.3,0.3-2.7,0.5-3.6l2.7-11.1c0.1-0.5,0.4-0.7,0.8-0.7h1.8 c0.5,0,0.7,0.4,0.5,0.8L101.8,38.2z"></path> <path class="st0" d="M111.3,38.8h-1.8c-0.4,0-0.7-0.3-0.7-0.7V22.2c0-0.4,0.3-0.7,0.7-0.7h1.8c0.4,0,0.7,0.3,0.7,0.7v15.9 C111.9,38.5,111.6,38.8,111.3,38.8"></path> <path class="st0" d="M126.4,38.8h-2.7c-0.4,0-0.6-0.2-0.7-0.5l-4-9.9c-0.4-1-0.8-2.6-1.1-4c0.2,1.4,0.4,3.7,0.4,4.7v9.2 c0,0.3-0.3,0.6-0.7,0.6H116c-0.4,0-0.7-0.3-0.7-0.6V22.2c0-0.4,0.3-0.6,0.7-0.6h2.6c0.4,0,0.8,0.2,1,0.5l3.8,9.7 c0.4,1.1,0.7,2.4,1.1,3.9c-0.2-1.5-0.3-3.2-0.3-4.4l0-9c0-0.3,0.3-0.6,0.7-0.6h1.5c0.4,0,0.7,0.3,0.7,0.6v15.9 C127.1,38.5,126.8,38.8,126.4,38.8"></path> <path class="st0" d="M140.6,38.4c-1,0.4-2.3,0.6-3.7,0.6c-5.1,0-7.1-3.5-7.1-8.8c0-5.2,2.6-8.7,7-8.7c1.6,0,3.1,0.4,4.2,1 c0.4,0.2,0.5,0.5,0.3,0.9l-0.6,1.2c-0.2,0.4-0.5,0.5-0.8,0.3c-0.9-0.4-1.7-0.7-3.1-0.7c-2.5,0-3.8,1.8-3.8,6.3c0,4.5,1.5,6,4,6 c0.5,0,1-0.1,1.4-0.2v-4.6h-2c-0.4,0-0.7-0.3-0.7-0.7v-1.3c0-0.4,0.3-0.7,0.7-0.7h4.4c0.4,0,0.7,0.3,0.7,0.7v7.7 C141.4,37.8,141.3,38.1,140.6,38.4"></path> </g> </svg> 